<mxfile host="app.diagrams.net" modified="2024-05-23T12:00:55.886Z" agent="Mozilla/5.0 (Windows NT 10.0; Win64; x64) AppleWebKit/537.36 (KHTML, like Gecko) Chrome/121.0.0.0 Safari/537.36" etag="skZLa4WfTE3mP6s0q8w6" version="24.4.6" type="device">
  <diagram name="Página-1" id="ZiPFj5SrXCE3NFDfiWm8">
    <mxGraphModel dx="1434" dy="782" grid="1" gridSize="10" guides="1" tooltips="1" connect="1" arrows="1" fold="1" page="1" pageScale="1" pageWidth="827" pageHeight="1169" math="0" shadow="0">
      <root>
        <mxCell id="0" />
        <mxCell id="1" parent="0" />
        <mxCell id="DqxcN8GwO106yfGj2cxF-53" value="" style="edgeStyle=orthogonalEdgeStyle;rounded=0;orthogonalLoop=1;jettySize=auto;html=1;" edge="1" parent="1" source="DqxcN8GwO106yfGj2cxF-1" target="DqxcN8GwO106yfGj2cxF-51">
          <mxGeometry relative="1" as="geometry" />
        </mxCell>
        <mxCell id="DqxcN8GwO106yfGj2cxF-1" value="Início" style="ellipse;whiteSpace=wrap;html=1;" vertex="1" parent="1">
          <mxGeometry x="50" y="20" width="110" height="60" as="geometry" />
        </mxCell>
        <mxCell id="DqxcN8GwO106yfGj2cxF-59" value="" style="edgeStyle=orthogonalEdgeStyle;rounded=0;orthogonalLoop=1;jettySize=auto;html=1;" edge="1" parent="1" source="DqxcN8GwO106yfGj2cxF-7" target="DqxcN8GwO106yfGj2cxF-58">
          <mxGeometry relative="1" as="geometry" />
        </mxCell>
        <mxCell id="DqxcN8GwO106yfGj2cxF-7" value="cadastrar cliente" style="rounded=0;whiteSpace=wrap;html=1;" vertex="1" parent="1">
          <mxGeometry x="50" y="230" width="115" height="50" as="geometry" />
        </mxCell>
        <mxCell id="DqxcN8GwO106yfGj2cxF-65" value="" style="edgeStyle=orthogonalEdgeStyle;rounded=0;orthogonalLoop=1;jettySize=auto;html=1;" edge="1" parent="1" source="DqxcN8GwO106yfGj2cxF-20" target="DqxcN8GwO106yfGj2cxF-63">
          <mxGeometry relative="1" as="geometry" />
        </mxCell>
        <mxCell id="DqxcN8GwO106yfGj2cxF-20" value="buscar cliente" style="rounded=0;whiteSpace=wrap;html=1;" vertex="1" parent="1">
          <mxGeometry x="220" y="125" width="112.5" height="50" as="geometry" />
        </mxCell>
        <mxCell id="DqxcN8GwO106yfGj2cxF-47" value="cadastro realizado" style="rounded=0;whiteSpace=wrap;html=1;" vertex="1" parent="1">
          <mxGeometry x="51.88" y="430" width="111.25" height="50" as="geometry" />
        </mxCell>
        <mxCell id="DqxcN8GwO106yfGj2cxF-55" value="sim" style="edgeStyle=orthogonalEdgeStyle;rounded=0;orthogonalLoop=1;jettySize=auto;html=1;" edge="1" parent="1" source="DqxcN8GwO106yfGj2cxF-51" target="DqxcN8GwO106yfGj2cxF-20">
          <mxGeometry relative="1" as="geometry" />
        </mxCell>
        <mxCell id="DqxcN8GwO106yfGj2cxF-57" value="não" style="edgeStyle=orthogonalEdgeStyle;rounded=0;orthogonalLoop=1;jettySize=auto;html=1;" edge="1" parent="1" source="DqxcN8GwO106yfGj2cxF-51">
          <mxGeometry relative="1" as="geometry">
            <mxPoint x="105.5" y="230" as="targetPoint" />
          </mxGeometry>
        </mxCell>
        <mxCell id="DqxcN8GwO106yfGj2cxF-51" value="cliente cadastrado" style="rhombus;whiteSpace=wrap;html=1;" vertex="1" parent="1">
          <mxGeometry x="65" y="110" width="80" height="80" as="geometry" />
        </mxCell>
        <mxCell id="DqxcN8GwO106yfGj2cxF-61" value="" style="edgeStyle=orthogonalEdgeStyle;rounded=0;orthogonalLoop=1;jettySize=auto;html=1;" edge="1" parent="1" source="DqxcN8GwO106yfGj2cxF-58" target="DqxcN8GwO106yfGj2cxF-60">
          <mxGeometry relative="1" as="geometry" />
        </mxCell>
        <mxCell id="DqxcN8GwO106yfGj2cxF-64" value="" style="edgeStyle=orthogonalEdgeStyle;rounded=0;orthogonalLoop=1;jettySize=auto;html=1;" edge="1" parent="1" source="DqxcN8GwO106yfGj2cxF-58" target="DqxcN8GwO106yfGj2cxF-47">
          <mxGeometry relative="1" as="geometry" />
        </mxCell>
        <mxCell id="DqxcN8GwO106yfGj2cxF-58" value="dados válidos?" style="rhombus;whiteSpace=wrap;html=1;" vertex="1" parent="1">
          <mxGeometry x="67.5" y="320" width="80" height="80" as="geometry" />
        </mxCell>
        <mxCell id="DqxcN8GwO106yfGj2cxF-62" style="edgeStyle=orthogonalEdgeStyle;rounded=0;orthogonalLoop=1;jettySize=auto;html=1;entryX=1;entryY=0.5;entryDx=0;entryDy=0;" edge="1" parent="1" source="DqxcN8GwO106yfGj2cxF-60" target="DqxcN8GwO106yfGj2cxF-7">
          <mxGeometry relative="1" as="geometry">
            <mxPoint x="245" y="250" as="targetPoint" />
            <Array as="points">
              <mxPoint x="246" y="255" />
            </Array>
          </mxGeometry>
        </mxCell>
        <mxCell id="DqxcN8GwO106yfGj2cxF-60" value="mostrar erro&amp;nbsp;" style="rounded=0;whiteSpace=wrap;html=1;" vertex="1" parent="1">
          <mxGeometry x="190" y="335" width="110" height="50" as="geometry" />
        </mxCell>
        <mxCell id="DqxcN8GwO106yfGj2cxF-67" value="não" style="edgeStyle=orthogonalEdgeStyle;rounded=0;orthogonalLoop=1;jettySize=auto;html=1;entryX=0.5;entryY=0;entryDx=0;entryDy=0;" edge="1" parent="1" source="DqxcN8GwO106yfGj2cxF-63" target="DqxcN8GwO106yfGj2cxF-20">
          <mxGeometry relative="1" as="geometry">
            <Array as="points">
              <mxPoint x="414" y="90" />
              <mxPoint x="276" y="90" />
            </Array>
          </mxGeometry>
        </mxCell>
        <mxCell id="DqxcN8GwO106yfGj2cxF-70" value="sim" style="edgeStyle=orthogonalEdgeStyle;rounded=0;orthogonalLoop=1;jettySize=auto;html=1;" edge="1" parent="1" source="DqxcN8GwO106yfGj2cxF-63" target="DqxcN8GwO106yfGj2cxF-69">
          <mxGeometry relative="1" as="geometry" />
        </mxCell>
        <mxCell id="DqxcN8GwO106yfGj2cxF-63" value="cliente encontrado" style="rhombus;whiteSpace=wrap;html=1;" vertex="1" parent="1">
          <mxGeometry x="373.5" y="110" width="80" height="80" as="geometry" />
        </mxCell>
        <mxCell id="DqxcN8GwO106yfGj2cxF-68" style="edgeStyle=orthogonalEdgeStyle;rounded=0;orthogonalLoop=1;jettySize=auto;html=1;entryX=0;entryY=0.5;entryDx=0;entryDy=0;" edge="1" parent="1" source="DqxcN8GwO106yfGj2cxF-47" target="DqxcN8GwO106yfGj2cxF-51">
          <mxGeometry relative="1" as="geometry">
            <mxPoint x="60" y="150" as="targetPoint" />
            <Array as="points">
              <mxPoint x="20" y="455" />
              <mxPoint x="20" y="150" />
            </Array>
          </mxGeometry>
        </mxCell>
        <mxCell id="DqxcN8GwO106yfGj2cxF-74" value="não" style="edgeStyle=orthogonalEdgeStyle;rounded=0;orthogonalLoop=1;jettySize=auto;html=1;" edge="1" parent="1" source="DqxcN8GwO106yfGj2cxF-69" target="DqxcN8GwO106yfGj2cxF-73">
          <mxGeometry relative="1" as="geometry" />
        </mxCell>
        <mxCell id="DqxcN8GwO106yfGj2cxF-69" value="apagar?" style="rhombus;whiteSpace=wrap;html=1;" vertex="1" parent="1">
          <mxGeometry x="500" y="110" width="80" height="80" as="geometry" />
        </mxCell>
        <mxCell id="DqxcN8GwO106yfGj2cxF-76" value="sim" style="edgeStyle=orthogonalEdgeStyle;rounded=0;orthogonalLoop=1;jettySize=auto;html=1;" edge="1" parent="1" source="DqxcN8GwO106yfGj2cxF-73" target="DqxcN8GwO106yfGj2cxF-75">
          <mxGeometry relative="1" as="geometry" />
        </mxCell>
        <mxCell id="DqxcN8GwO106yfGj2cxF-73" value="atualizar?" style="rhombus;whiteSpace=wrap;html=1;" vertex="1" parent="1">
          <mxGeometry x="620" y="110" width="80" height="80" as="geometry" />
        </mxCell>
        <mxCell id="DqxcN8GwO106yfGj2cxF-75" value="" style="rhombus;whiteSpace=wrap;html=1;" vertex="1" parent="1">
          <mxGeometry x="620" y="215" width="80" height="80" as="geometry" />
        </mxCell>
      </root>
    </mxGraphModel>
  </diagram>
</mxfile>
